name GIL02_free2.mot
datacolumns 153
datarows 4
range 0.61666667 0.64166665
endheader

                time	           pelvis_tx	           pelvis_ty	           pelvis_tz	         pelvis_tilt	         pelvis_list	     pelvis_rotation	       hip_flexion_r	     hip_adduction_r	      hip_rotation_r	        knee_angle_r	       ankle_angle_r	    subtalar_angle_r	         mtp_angle_r	       hip_flexion_l	     hip_adduction_l	      hip_rotation_l	        knee_angle_l	       ankle_angle_l	    subtalar_angle_l	         mtp_angle_l	    lumbar_extension	      lumbar_bending	     lumbar_rotation	     ground_force_vx	     ground_force_vy	     ground_force_vz	     ground_force_px	     ground_force_py	     ground_force_pz	     ground_force_vx	     ground_force_vy	     ground_force_vz	     ground_force_px	     ground_force_py	     ground_force_pz	     ground_torque_x	     ground_torque_y	     ground_torque_z	     ground_torque_x	     ground_torque_y	     ground_torque_z	    ground_marker_px	    ground_marker_py	    ground_marker_pz	    ground_marker_px	    ground_marker_py	    ground_marker_pz	    ground_marker_px	    ground_marker_py	    ground_marker_pz	    ground_marker_px	    ground_marker_py	    ground_marker_pz	    ground_marker_px	    ground_marker_py	    ground_marker_pz	    ground_marker_px	    ground_marker_py	    ground_marker_pz	    ground_marker_px	    ground_marker_py	    ground_marker_pz	    ground_marker_px	    ground_marker_py	    ground_marker_pz	    ground_marker_px	    ground_marker_py	    ground_marker_pz	    ground_marker_px	    ground_marker_py	    ground_marker_pz	    ground_marker_px	    ground_marker_py	    ground_marker_pz	    ground_marker_px	    ground_marker_py	    ground_marker_pz	    ground_marker_px	    ground_marker_py	    ground_marker_pz	    ground_marker_px	    ground_marker_py	    ground_marker_pz	    ground_marker_px	    ground_marker_py	    ground_marker_pz	    ground_marker_px	    ground_marker_py	    ground_marker_pz	    ground_marker_px	    ground_marker_py	    ground_marker_pz	    ground_marker_px	    ground_marker_py	    ground_marker_pz	    ground_marker_px	    ground_marker_py	    ground_marker_pz	    ground_marker_px	    ground_marker_py	    ground_marker_pz	    ground_marker_px	    ground_marker_py	    ground_marker_pz	    ground_marker_px	    ground_marker_py	    ground_marker_pz	    ground_marker_px	    ground_marker_py	    ground_marker_pz	    ground_marker_px	    ground_marker_py	    ground_marker_pz	    ground_marker_px	    ground_marker_py	    ground_marker_pz	    ground_marker_px	    ground_marker_py	    ground_marker_pz	    ground_marker_px	    ground_marker_py	    ground_marker_pz	    ground_marker_px	    ground_marker_py	    ground_marker_pz	    ground_marker_px	    ground_marker_py	    ground_marker_pz	    ground_marker_px	    ground_marker_py	    ground_marker_pz	    ground_marker_px	    ground_marker_py	    ground_marker_pz	    ground_marker_px	    ground_marker_py	    ground_marker_pz	    ground_marker_px	    ground_marker_py	    ground_marker_pz	    ground_marker_px	    ground_marker_py	    ground_marker_pz	    ground_marker_px	    ground_marker_py	    ground_marker_pz	    ground_marker_px	    ground_marker_py	    ground_marker_pz	    ground_marker_px	    ground_marker_py	    ground_marker_pz	
          0.61666667	          1.77098012	          0.92965710	         -0.20883769	         -0.27717209	          5.25527573	         -5.09050131	        -12.65515900	         -6.97934151	         13.37076378	        -23.36293030	          7.53462362	          0.00000000	          0.00000000	         23.95507050	          4.23477030	          1.57633293	        -10.67330074	        -10.17937088	          0.00000000	          0.00000000	         -8.38119125	         -1.03578734	          2.88330889	        145.44979959	        480.20172730	        -13.36386860	          1.42402148	          0.00000000	         -0.14380823	        -79.48934625	        360.20086521	         -3.81305478	          1.94314954	          0.00000000	         -0.25538062	          0.00000000	          1.59399402	          0.00000000	          0.00000000	          1.38453149	          0.00000000	          1.69126391	          0.86663878	         -0.21571577	          1.67664087	          0.83878982	         -0.14953619	          1.69260132	          0.84936172	         -0.29874238	          1.58158135	          0.44415122	         -0.13791710	          1.85797274	          0.45964664	         -0.27710658	          1.33438575	          0.12259853	         -0.15105066	          1.94235718	          0.07181468	         -0.26115036	          1.77098012	          0.92965710	         -0.20883769	          1.75809240	          0.92112058	         -0.08835743	          1.78386784	          0.93819368	         -0.32931796	          1.58300447	          0.97164071	         -0.19421971	          1.59662282	          0.97170901	         -0.27854013	          1.59023833	          0.44376931	         -0.08006245	          1.86726892	          0.46041331	         -0.33435163	          1.57890475	          0.44565004	         -0.19126102	          1.84474695	          0.45798108	         -0.21712346	          1.32294142	          0.12985930	         -0.11341678	          1.92677402	          0.06696679	         -0.29657155	          1.34644794	          0.13110298	         -0.17933953	          1.94465804	          0.08710914	         -0.23572892	          1.58723092	          1.39782321	         -0.19545171	          1.71627939	          1.31987023	         -0.14867502	          1.72203970	          1.32628202	         -0.25525835	          1.70160294	          1.33102632	         -0.19971417	          1.78415191	          1.16788375	         -0.21664996	          1.66140556	          0.53850120	         -0.00491276	          1.95807803	          0.61052281	         -0.27356017	          1.68269622	          0.60163438	         -0.06954621	          1.87776732	          0.62755495	         -0.32529917	          1.66800976	          0.51603740	         -0.09417951	          1.89264870	          0.54122812	         -0.31279647	          1.41752851	          0.22544907	         -0.02271150	          1.92425883	          0.20583276	         -0.38444060	          1.38783026	          0.20423540	         -0.09716064	          1.91521871	          0.16782507	         -0.31467625	          1.42122531	          0.04081295	         -0.13752510	          2.06430078	          0.04864946	         -0.26790899	
          0.62500000	          1.78291845	          0.93093145	         -0.21032713	         -0.39524555	          5.62789345	         -4.80461931	        -12.09057236	         -7.70120049	         12.95775318	        -25.03731728	          4.79691219	          0.00000000	          0.00000000	         23.76964188	          4.94544458	          2.26808214	        -11.43179893	         -9.63756466	          0.00000000	          0.00000000	         -8.16824150	         -1.38220334	          2.56413102	        137.02839826	        398.26935140	        -10.19974640	          1.42358472	          0.00000000	         -0.14359320	        -85.48087561	        387.76336840	          3.46553788	          1.94825122	          0.00000000	         -0.25652579	          0.00000000	          1.33826416	          0.00000000	          0.00000000	          1.29905859	          0.00000000	          1.70359850	          0.86871600	         -0.21778865	          1.68863940	          0.83977544	         -0.15137383	          1.70410085	          0.85142857	         -0.30055204	          1.59629738	          0.44384399	         -0.13689975	          1.86687863	          0.46096814	         -0.27735254	          1.34232295	          0.12824756	         -0.14978389	          1.94360042	          0.07146784	         -0.26058194	          1.78291845	          0.93093145	         -0.21032713	          1.77045250	          0.92153609	         -0.09005160	          1.79538429	          0.94032687	         -0.33060268	          1.59507382	          0.97313488	         -0.19451605	          1.60807085	          0.97376615	         -0.27893293	          1.60487354	          0.44395927	         -0.07903191	          1.87688029	          0.46174353	         -0.33447844	          1.59594560	          0.44275275	         -0.18954250	          1.85276794	          0.45969138	         -0.21858414	          1.33039808	          0.13632050	         -0.11246599	          1.92889595	          0.06702796	         -0.29642981	          1.35451722	          0.13637801	         -0.17784788	          1.94635105	          0.08694155	         -0.23516972	          1.59817028	          1.39906383	         -0.19677588	          1.72690988	          1.32155800	         -0.14991716	          1.73281300	          1.32800627	         -0.25650325	          1.71235955	          1.33257949	         -0.20113496	          1.79515517	          1.16971099	         -0.21783619	          1.67523098	          0.53911078	         -0.00411271	          1.96802056	          0.61123890	         -0.27238601	          1.69695234	          0.60153407	         -0.06955362	          1.88921297	          0.62974560	         -0.32495886	          1.68329835	          0.51589417	         -0.09260391	          1.90305948	          0.54310727	         -0.31283522	          1.42584789	          0.23138550	         -0.02161438	          1.93140650	          0.20597798	         -0.38393876	          1.39700842	          0.21000566	         -0.09612639	          1.92040157	          0.16744098	         -0.31405330	          1.42324924	          0.04071622	         -0.13745955	          2.06613851	          0.04666873	         -0.26695731	
          0.63333333	          1.79479051	          0.93249261	         -0.21190831	         -0.48119545	          6.01314068	         -4.51539373	        -11.40002537	         -8.45450783	         12.52740192	        -26.86331940	          1.56213999	          0.00000000	          0.00000000	         23.48254776	          5.68995428	          2.95644975	        -12.11278820	         -8.87875271	          0.00000000	          0.00000000	         -7.83927774	         -1.56110799	          2.27705860	        120.28676226	        307.24385507	         -7.53503689	          1.42325439	          0.00000000	         -0.14340335	        -86.89176723	        408.96750728	          9.54541453	          1.95152185	          0.00000000	         -0.25712933	          0.00000000	          1.10711584	          0.00000000	          0.00000000	          1.20823584	          0.00000000	          1.71557820	          0.87073994	         -0.21956092	          1.70062423	          0.84098029	         -0.15332788	          1.71558237	          0.85375911	         -0.30246520	          1.61211812	          0.44349054	         -0.13581745	          1.87533987	          0.46223915	         -0.27762866	          1.35166097	          0.13397910	         -0.14854819	          1.94441271	          0.07121793	         -0.26000378	          1.79479051	          0.93249261	         -0.21190831	          1.78275239	          0.92220843	         -0.09188514	          1.80682850	          0.94277680	         -0.33193147	          1.60704267	          0.97477287	         -0.19473781	          1.61949193	          0.97599018	         -0.27929354	          1.62057638	          0.44415700	         -0.07793599	          1.88604438	          0.46299130	         -0.33462733	          1.61274803	          0.44051248	         -0.18801905	          1.86037135	          0.46285936	         -0.21786630	          1.33922863	          0.14292124	         -0.11159588	          1.93051338	          0.06713058	         -0.29621294	          1.36457145	          0.14182132	         -0.17640834	          1.94760656	          0.08695070	         -0.23467568	          1.60879135	          1.40025330	         -0.19861506	          1.73720419	          1.32307661	         -0.15168235	          1.74323344	          1.32989168	         -0.25812349	          1.72309053	          1.33429992	         -0.20253666	          1.80585158	          1.17159808	         -0.21996531	          1.68978691	          0.53980041	         -0.00322718	          1.97762954	          0.61179090	         -0.27127486	          1.71173525	          0.60176027	         -0.06924991	          1.90044689	          0.63179553	         -0.32463172	          1.69879079	          0.51528049	         -0.09141522	          1.91307294	          0.54517525	         -0.31181425	          1.43534696	          0.23754241	         -0.02058315	          1.93779516	          0.20605886	         -0.38340753	          1.40714908	          0.21599275	         -0.09530339	          1.92388558	          0.16717266	         -0.31357679	          1.42558742	          0.04063727	         -0.13747218	          2.06752753	          0.04524946	         -0.26627311	
          0.64166665	          1.80656743	          0.93427944	         -0.21354479	         -0.53559685	          6.39708805	         -4.22745419	        -10.58839512	         -9.21287632	         12.08240032	        -28.81915855	         -2.22094011	          0.00000000	          0.00000000	         23.08892059	          6.44444323	          3.61799383	        -12.68533802	         -8.00730038	          0.00000000	          0.00000000	         -7.51030588	         -1.88171494	          2.13644314	         94.80341720	        214.75657433	         -5.90647557	          1.42355017	          0.00000000	         -0.14328105	        -87.37039949	        433.13140055	         14.03800301	          1.95380396	          0.00000000	         -0.25743494	          0.00000000	          0.89228955	          0.00000000	          0.00000000	          1.34287781	          0.00000000	          1.72466588	          0.87019539	         -0.22136986	          1.71256411	          0.84236014	         -0.15534128	          1.72701669	          0.85626990	         -0.30442724	          1.62899256	          0.44307151	         -0.13471113	          1.88330948	          0.46337005	         -0.27795205	          1.36249149	          0.13968886	         -0.14733386	          1.94494081	          0.07102903	         -0.25942612	          1.80656743	          0.93427944	         -0.21354479	          1.79495990	          0.92310804	         -0.09380769	          1.81817496	          0.94545090	         -0.33328187	          1.61886179	          0.97649729	         -0.19490710	          1.63087881	          0.97830933	         -0.27961820	          1.63728344	          0.44432753	         -0.07681525	          1.89468205	          0.46406186	         -0.33482197	          1.62985802	          0.43839222	         -0.18598311	          1.86675143	          0.46585253	         -0.21708624	          1.34954977	          0.14953676	         -0.11078893	          1.93171370	          0.06722818	         -0.29591721	          1.37631714	          0.14709628	         -0.17504670	          1.94798863	          0.08717930	         -0.23418364	          1.61919332	          1.40155268	         -0.20039478	          1.74794054	          1.32479644	         -0.15362710	          1.75379133	          1.33175719	         -0.25990865	          1.73377728	          1.33608449	         -0.20393871	          1.81705618	          1.17365587	         -0.22211410	          1.70500112	          0.54052246	         -0.00228804	          1.98687851	          0.61208522	         -0.27030885	          1.72736537	          0.60207075	         -0.06865678	          1.91084981	          0.63316828	         -0.32470885	          1.71484506	          0.51447040	         -0.08991416	          1.92199981	          0.54661649	         -0.31097722	          1.44612122	          0.24375387	         -0.01959899	          1.94331968	          0.20603815	         -0.38289276	          1.41889501	          0.22177750	         -0.09435255	          1.92599678	          0.16778079	         -0.31353238	          1.42826414	          0.04066552	         -0.13758022	          2.06855559	          0.04424145	         -0.26577175	
